<mxfile host="app.diagrams.net" agent="Mozilla/5.0 (Windows NT 10.0; Win64; x64; rv:133.0) Gecko/20100101 Firefox/133.0" version="24.9.1">
  <diagram name="Page-1" id="YEhjJKSPnRyHB3b2QTLM">
    <mxGraphModel dx="954" dy="553" grid="1" gridSize="10" guides="1" tooltips="1" connect="1" arrows="1" fold="1" page="1" pageScale="1" pageWidth="850" pageHeight="1100" math="0" shadow="0">
      <root>
        <mxCell id="0" />
        <mxCell id="1" parent="0" />
        <mxCell id="OHewmTsMpt972KVqSZn3-21" style="edgeStyle=orthogonalEdgeStyle;rounded=0;orthogonalLoop=1;jettySize=auto;html=1;exitX=0.5;exitY=0.5;exitDx=0;exitDy=0;exitPerimeter=0;" edge="1" parent="1" source="lUGRWfGARe6teelx05pl-1" target="OHewmTsMpt972KVqSZn3-20">
          <mxGeometry relative="1" as="geometry" />
        </mxCell>
        <mxCell id="OHewmTsMpt972KVqSZn3-25" style="edgeStyle=orthogonalEdgeStyle;rounded=0;orthogonalLoop=1;jettySize=auto;html=1;exitX=0.5;exitY=0.5;exitDx=0;exitDy=0;exitPerimeter=0;entryX=0;entryY=0.5;entryDx=0;entryDy=0;" edge="1" parent="1" source="lUGRWfGARe6teelx05pl-1" target="lUGRWfGARe6teelx05pl-11">
          <mxGeometry relative="1" as="geometry" />
        </mxCell>
        <mxCell id="OHewmTsMpt972KVqSZn3-26" style="edgeStyle=orthogonalEdgeStyle;rounded=0;orthogonalLoop=1;jettySize=auto;html=1;exitX=0.5;exitY=0.5;exitDx=0;exitDy=0;exitPerimeter=0;entryX=0;entryY=0.5;entryDx=0;entryDy=0;" edge="1" parent="1" source="lUGRWfGARe6teelx05pl-1" target="lUGRWfGARe6teelx05pl-12">
          <mxGeometry relative="1" as="geometry" />
        </mxCell>
        <mxCell id="OHewmTsMpt972KVqSZn3-27" style="edgeStyle=orthogonalEdgeStyle;rounded=0;orthogonalLoop=1;jettySize=auto;html=1;exitX=0.5;exitY=0.5;exitDx=0;exitDy=0;exitPerimeter=0;entryX=0;entryY=0.5;entryDx=0;entryDy=0;" edge="1" parent="1" source="lUGRWfGARe6teelx05pl-1" target="lUGRWfGARe6teelx05pl-15">
          <mxGeometry relative="1" as="geometry" />
        </mxCell>
        <mxCell id="OHewmTsMpt972KVqSZn3-28" style="edgeStyle=orthogonalEdgeStyle;rounded=0;orthogonalLoop=1;jettySize=auto;html=1;exitX=0.5;exitY=0.5;exitDx=0;exitDy=0;exitPerimeter=0;entryX=0;entryY=0.5;entryDx=0;entryDy=0;" edge="1" parent="1" source="lUGRWfGARe6teelx05pl-1" target="lUGRWfGARe6teelx05pl-14">
          <mxGeometry relative="1" as="geometry" />
        </mxCell>
        <mxCell id="OHewmTsMpt972KVqSZn3-29" style="edgeStyle=orthogonalEdgeStyle;rounded=0;orthogonalLoop=1;jettySize=auto;html=1;exitX=0.5;exitY=0.5;exitDx=0;exitDy=0;exitPerimeter=0;entryX=0;entryY=0.5;entryDx=0;entryDy=0;" edge="1" parent="1" source="lUGRWfGARe6teelx05pl-1" target="lUGRWfGARe6teelx05pl-13">
          <mxGeometry relative="1" as="geometry" />
        </mxCell>
        <mxCell id="OHewmTsMpt972KVqSZn3-37" style="edgeStyle=orthogonalEdgeStyle;rounded=0;orthogonalLoop=1;jettySize=auto;html=1;exitX=0.5;exitY=0.5;exitDx=0;exitDy=0;exitPerimeter=0;entryX=0.5;entryY=0;entryDx=0;entryDy=0;" edge="1" parent="1" source="lUGRWfGARe6teelx05pl-1" target="OHewmTsMpt972KVqSZn3-36">
          <mxGeometry relative="1" as="geometry" />
        </mxCell>
        <mxCell id="OHewmTsMpt972KVqSZn3-47" style="edgeStyle=orthogonalEdgeStyle;rounded=0;orthogonalLoop=1;jettySize=auto;html=1;exitX=0.5;exitY=0.5;exitDx=0;exitDy=0;exitPerimeter=0;entryX=0;entryY=0.5;entryDx=0;entryDy=0;" edge="1" parent="1" source="lUGRWfGARe6teelx05pl-1" target="lUGRWfGARe6teelx05pl-16">
          <mxGeometry relative="1" as="geometry" />
        </mxCell>
        <object label="&lt;div&gt;کاربر&lt;/div&gt;&lt;div&gt;&lt;br&gt;&lt;/div&gt;" user="کاربر" id="lUGRWfGARe6teelx05pl-1">
          <mxCell style="shape=umlActor;verticalLabelPosition=bottom;verticalAlign=top;html=1;outlineConnect=0;fontFamily=Comic Sans MS;" parent="1" vertex="1">
            <mxGeometry x="70" y="80" width="30" height="60" as="geometry" />
          </mxCell>
        </object>
        <mxCell id="OHewmTsMpt972KVqSZn3-42" style="edgeStyle=orthogonalEdgeStyle;rounded=0;orthogonalLoop=1;jettySize=auto;html=1;exitX=0.5;exitY=0.5;exitDx=0;exitDy=0;exitPerimeter=0;entryX=0;entryY=0.5;entryDx=0;entryDy=0;" edge="1" parent="1" source="lUGRWfGARe6teelx05pl-47" target="OHewmTsMpt972KVqSZn3-41">
          <mxGeometry relative="1" as="geometry" />
        </mxCell>
        <mxCell id="OHewmTsMpt972KVqSZn3-44" style="edgeStyle=orthogonalEdgeStyle;rounded=0;orthogonalLoop=1;jettySize=auto;html=1;exitX=0.5;exitY=0.5;exitDx=0;exitDy=0;exitPerimeter=0;" edge="1" parent="1" source="lUGRWfGARe6teelx05pl-47" target="OHewmTsMpt972KVqSZn3-43">
          <mxGeometry relative="1" as="geometry" />
        </mxCell>
        <mxCell id="OHewmTsMpt972KVqSZn3-46" style="edgeStyle=orthogonalEdgeStyle;rounded=0;orthogonalLoop=1;jettySize=auto;html=1;exitX=0.5;exitY=0.5;exitDx=0;exitDy=0;exitPerimeter=0;" edge="1" parent="1" source="lUGRWfGARe6teelx05pl-47" target="OHewmTsMpt972KVqSZn3-45">
          <mxGeometry relative="1" as="geometry" />
        </mxCell>
        <object label="ادمین" user="کاربر" id="lUGRWfGARe6teelx05pl-47">
          <mxCell style="shape=umlActor;verticalLabelPosition=bottom;verticalAlign=top;html=1;outlineConnect=0;fontFamily=Comic Sans MS;" parent="1" vertex="1">
            <mxGeometry x="70" y="380" width="30" height="60" as="geometry" />
          </mxCell>
        </object>
        <mxCell id="OHewmTsMpt972KVqSZn3-52" style="edgeStyle=orthogonalEdgeStyle;rounded=0;orthogonalLoop=1;jettySize=auto;html=1;exitX=0.5;exitY=0.5;exitDx=0;exitDy=0;exitPerimeter=0;entryX=0;entryY=0.5;entryDx=0;entryDy=0;" edge="1" parent="1" source="lUGRWfGARe6teelx05pl-62" target="OHewmTsMpt972KVqSZn3-51">
          <mxGeometry relative="1" as="geometry" />
        </mxCell>
        <mxCell id="OHewmTsMpt972KVqSZn3-54" style="edgeStyle=orthogonalEdgeStyle;rounded=0;orthogonalLoop=1;jettySize=auto;html=1;exitX=0.5;exitY=0.5;exitDx=0;exitDy=0;exitPerimeter=0;" edge="1" parent="1" source="lUGRWfGARe6teelx05pl-62" target="OHewmTsMpt972KVqSZn3-53">
          <mxGeometry relative="1" as="geometry" />
        </mxCell>
        <object label="مسئول پشتیبانی" user="کاربر" id="lUGRWfGARe6teelx05pl-62">
          <mxCell style="shape=umlActor;verticalLabelPosition=bottom;verticalAlign=top;html=1;outlineConnect=0;fontFamily=Comic Sans MS;" parent="1" vertex="1">
            <mxGeometry x="70" y="720" width="30" height="60" as="geometry" />
          </mxCell>
        </object>
        <mxCell id="OHewmTsMpt972KVqSZn3-10" value="SafeDrive - use cases" style="shape=umlFrame;whiteSpace=wrap;html=1;pointerEvents=0;recursiveResize=0;container=1;collapsible=0;width=160;" vertex="1" parent="1">
          <mxGeometry x="160" y="50" width="620" height="910" as="geometry" />
        </mxCell>
        <mxCell id="lUGRWfGARe6teelx05pl-11" value="ثبت نام" style="ellipse;whiteSpace=wrap;html=1;" parent="OHewmTsMpt972KVqSZn3-10" vertex="1">
          <mxGeometry x="400" y="20" width="60" height="40" as="geometry" />
        </mxCell>
        <mxCell id="lUGRWfGARe6teelx05pl-12" value="رزرو وقت" style="ellipse;whiteSpace=wrap;html=1;" parent="OHewmTsMpt972KVqSZn3-10" vertex="1">
          <mxGeometry x="400" y="60" width="60" height="40" as="geometry" />
        </mxCell>
        <mxCell id="lUGRWfGARe6teelx05pl-13" value="اشتراک فایل" style="ellipse;whiteSpace=wrap;html=1;" parent="OHewmTsMpt972KVqSZn3-10" vertex="1">
          <mxGeometry x="400" y="180" width="60" height="40" as="geometry" />
        </mxCell>
        <mxCell id="lUGRWfGARe6teelx05pl-14" value="دانلود فایل" style="ellipse;whiteSpace=wrap;html=1;" parent="OHewmTsMpt972KVqSZn3-10" vertex="1">
          <mxGeometry x="400" y="140" width="60" height="40" as="geometry" />
        </mxCell>
        <mxCell id="OHewmTsMpt972KVqSZn3-33" style="endArrow=open;endSize=12;dashed=1;html=1;rounded=0;exitX=1;exitY=0.5;exitDx=0;exitDy=0;" edge="1" parent="OHewmTsMpt972KVqSZn3-10" source="lUGRWfGARe6teelx05pl-15" target="OHewmTsMpt972KVqSZn3-30">
          <mxGeometry relative="1" as="geometry" />
        </mxCell>
        <mxCell id="lUGRWfGARe6teelx05pl-15" value="آپلود فایل" style="ellipse;whiteSpace=wrap;html=1;" parent="OHewmTsMpt972KVqSZn3-10" vertex="1">
          <mxGeometry x="400" y="100" width="60" height="40" as="geometry" />
        </mxCell>
        <mxCell id="lUGRWfGARe6teelx05pl-16" value="ورود" style="ellipse;whiteSpace=wrap;html=1;" parent="OHewmTsMpt972KVqSZn3-10" vertex="1">
          <mxGeometry x="400" y="220" width="60" height="40" as="geometry" />
        </mxCell>
        <mxCell id="lUGRWfGARe6teelx05pl-82" style="edgeStyle=orthogonalEdgeStyle;rounded=0;orthogonalLoop=1;jettySize=auto;html=1;exitX=0.5;exitY=1;exitDx=0;exitDy=0;" parent="OHewmTsMpt972KVqSZn3-10" source="lUGRWfGARe6teelx05pl-16" target="lUGRWfGARe6teelx05pl-16" edge="1">
          <mxGeometry relative="1" as="geometry" />
        </mxCell>
        <mxCell id="OHewmTsMpt972KVqSZn3-20" value="مدیریت فایل ها" style="ellipse;whiteSpace=wrap;html=1;" vertex="1" parent="OHewmTsMpt972KVqSZn3-10">
          <mxGeometry x="140" y="260" width="60" height="40" as="geometry" />
        </mxCell>
        <mxCell id="OHewmTsMpt972KVqSZn3-30" value="رمز نگاری" style="ellipse;whiteSpace=wrap;html=1;" vertex="1" parent="OHewmTsMpt972KVqSZn3-10">
          <mxGeometry x="510" y="20" width="60" height="40" as="geometry" />
        </mxCell>
        <mxCell id="OHewmTsMpt972KVqSZn3-34" value="رمز گشایی" style="ellipse;whiteSpace=wrap;html=1;" vertex="1" parent="OHewmTsMpt972KVqSZn3-10">
          <mxGeometry x="550" y="110" width="60" height="40" as="geometry" />
        </mxCell>
        <mxCell id="OHewmTsMpt972KVqSZn3-35" style="endArrow=open;endSize=12;dashed=1;html=1;rounded=0;exitX=1;exitY=0.5;exitDx=0;exitDy=0;entryX=0;entryY=0.5;entryDx=0;entryDy=0;" edge="1" parent="OHewmTsMpt972KVqSZn3-10" source="lUGRWfGARe6teelx05pl-14" target="OHewmTsMpt972KVqSZn3-34">
          <mxGeometry relative="1" as="geometry">
            <mxPoint x="470" y="130" as="sourcePoint" />
            <mxPoint x="533" y="67" as="targetPoint" />
          </mxGeometry>
        </mxCell>
        <mxCell id="OHewmTsMpt972KVqSZn3-36" value="همگام سازی ابری" style="ellipse;whiteSpace=wrap;html=1;" vertex="1" parent="OHewmTsMpt972KVqSZn3-10">
          <mxGeometry x="80" y="160" width="60" height="40" as="geometry" />
        </mxCell>
        <mxCell id="OHewmTsMpt972KVqSZn3-38" value="اتصال به سرویس ابری" style="ellipse;whiteSpace=wrap;html=1;" vertex="1" parent="OHewmTsMpt972KVqSZn3-10">
          <mxGeometry x="20" y="240" width="60" height="40" as="geometry" />
        </mxCell>
        <mxCell id="OHewmTsMpt972KVqSZn3-40" style="endArrow=open;endSize=12;dashed=1;html=1;rounded=0;exitX=0.5;exitY=1;exitDx=0;exitDy=0;" edge="1" parent="OHewmTsMpt972KVqSZn3-10" source="OHewmTsMpt972KVqSZn3-36" target="OHewmTsMpt972KVqSZn3-38">
          <mxGeometry relative="1" as="geometry">
            <mxPoint x="40" y="160" as="sourcePoint" />
            <mxPoint x="90" y="210" as="targetPoint" />
          </mxGeometry>
        </mxCell>
        <mxCell id="OHewmTsMpt972KVqSZn3-41" value="مدیریت کاربران" style="ellipse;whiteSpace=wrap;html=1;" vertex="1" parent="OHewmTsMpt972KVqSZn3-10">
          <mxGeometry x="410" y="290" width="60" height="40" as="geometry" />
        </mxCell>
        <mxCell id="OHewmTsMpt972KVqSZn3-43" value="مانیتورینگ سرور ها" style="ellipse;whiteSpace=wrap;html=1;" vertex="1" parent="OHewmTsMpt972KVqSZn3-10">
          <mxGeometry x="230" y="420" width="60" height="40" as="geometry" />
        </mxCell>
        <mxCell id="OHewmTsMpt972KVqSZn3-45" value="مدیریت ذخیره سازی" style="ellipse;whiteSpace=wrap;html=1;" vertex="1" parent="OHewmTsMpt972KVqSZn3-10">
          <mxGeometry x="410" y="340" width="60" height="40" as="geometry" />
        </mxCell>
        <mxCell id="OHewmTsMpt972KVqSZn3-48" value="اتصال به شبکه" style="ellipse;whiteSpace=wrap;html=1;" vertex="1" parent="OHewmTsMpt972KVqSZn3-10">
          <mxGeometry x="520" y="270" width="60" height="40" as="geometry" />
        </mxCell>
        <mxCell id="OHewmTsMpt972KVqSZn3-49" style="endArrow=open;endSize=12;dashed=1;html=1;rounded=0;exitX=1;exitY=0.5;exitDx=0;exitDy=0;" edge="1" parent="OHewmTsMpt972KVqSZn3-10" source="lUGRWfGARe6teelx05pl-16" target="OHewmTsMpt972KVqSZn3-48">
          <mxGeometry relative="1" as="geometry">
            <mxPoint x="470" y="250" as="sourcePoint" />
            <mxPoint x="520" y="300" as="targetPoint" />
          </mxGeometry>
        </mxCell>
        <mxCell id="OHewmTsMpt972KVqSZn3-51" value="&lt;div&gt;رفع مشکل کاربران&lt;/div&gt;" style="ellipse;whiteSpace=wrap;html=1;" vertex="1" parent="OHewmTsMpt972KVqSZn3-10">
          <mxGeometry x="250" y="530" width="60" height="40" as="geometry" />
        </mxCell>
        <mxCell id="OHewmTsMpt972KVqSZn3-53" value="بررسی و جمع آوری بازخورد ها" style="ellipse;whiteSpace=wrap;html=1;" vertex="1" parent="OHewmTsMpt972KVqSZn3-10">
          <mxGeometry x="250" y="600" width="60" height="40" as="geometry" />
        </mxCell>
      </root>
    </mxGraphModel>
  </diagram>
</mxfile>
